<svg width="22" height="22" viewBox="0 0 22 22" fill="none" xmlns="http://www.w3.org/2000/svg">
<rect opacity="0.01" width="22" height="22" fill="#D8D8D8"/>
<rect x="6.875" y="4.67529" width="11.9167" height="1.65" rx="0.825" fill="#666666"/>
<rect x="3.20801" y="10.1753" width="11.9167" height="1.65" rx="0.825" fill="#666666"/>
<rect x="3.20801" y="15.6753" width="6.41667" height="1.65" rx="0.825" fill="#666666"/>
<rect x="12.375" y="15.6753" width="6.41667" height="1.65" rx="0.825" fill="#666666"/>
<path fill-rule="evenodd" clip-rule="evenodd" d="M7.79134 5.50016C7.79134 4.23451 6.76533 3.2085 5.49967 3.2085C4.23402 3.2085 3.20801 4.23451 3.20801 5.50016C3.20801 6.76582 4.23402 7.79183 5.49967 7.79183C6.76533 7.79183 7.79134 6.76582 7.79134 5.50016ZM4.39967 5.50016C4.39967 4.89265 4.89216 4.40016 5.49967 4.40016C6.10719 4.40016 6.59967 4.89265 6.59967 5.50016C6.59967 6.10768 6.10719 6.60016 5.49967 6.60016C4.89216 6.60016 4.39967 6.10768 4.39967 5.50016Z" fill="#666666"/>
<path fill-rule="evenodd" clip-rule="evenodd" d="M18.7913 11.0002C18.7913 9.73451 17.7653 8.7085 16.4997 8.7085C15.234 8.7085 14.208 9.73451 14.208 11.0002C14.208 12.2658 15.234 13.2918 16.4997 13.2918C17.7653 13.2918 18.7913 12.2658 18.7913 11.0002ZM15.3997 11.0002C15.3997 10.3926 15.8922 9.90016 16.4997 9.90016C17.1072 9.90016 17.5997 10.3926 17.5997 11.0002C17.5997 11.6077 17.1072 12.1002 16.4997 12.1002C15.8922 12.1002 15.3997 11.6077 15.3997 11.0002Z" fill="#666666"/>
<path fill-rule="evenodd" clip-rule="evenodd" d="M13.2913 16.5002C13.2913 15.2345 12.2653 14.2085 10.9997 14.2085C9.73402 14.2085 8.70801 15.2345 8.70801 16.5002C8.70801 17.7658 9.73402 18.7918 10.9997 18.7918C12.2653 18.7918 13.2913 17.7658 13.2913 16.5002ZM9.89967 16.5002C9.89967 15.8926 10.3922 15.4002 10.9997 15.4002C11.6072 15.4002 12.0997 15.8926 12.0997 16.5002C12.0997 17.1077 11.6072 17.6002 10.9997 17.6002C10.3922 17.6002 9.89967 17.1077 9.89967 16.5002Z" fill="#666666"/>
</svg>
