<?xml version="1.0" encoding="utf-8"?>
<!-- Generator: Adobe Illustrator 26.5.0, SVG Export Plug-In . SVG Version: 6.00 Build 0)  -->
<svg version="1.1" id="圖層_1" xmlns="http://www.w3.org/2000/svg" xmlns:xlink="http://www.w3.org/1999/xlink" x="0px" y="0px"
	 viewBox="0 0 375 300" style="enable-background:new 0 0 375 300;" xml:space="preserve">
<style type="text/css">
	.st0{fill:#F3F6F8;}
	.st1{fill-rule:evenodd;clip-rule:evenodd;fill:#F3F6F8;}
</style>
<path class="st0" d="M185,46.2c2-0.7,1.8-1.6,3.2-2.4c1.5-0.7,3.2-0.5,4.3-1c1-0.6,2.9-2,1.7-5.1c-1.2-3.1-4.7-5.1-9.8-2.6
	c-5,2.5-4.4,7.1-3.8,8.6C181.2,45.1,183,46.9,185,46.2z"/>
<path class="st0" d="M23.2,113.9c-1.9,0.9-1.6,1.8-2.9,2.7c-1.4,0.8-3.2,0.9-4.1,1.6c-1,0.7-2.6,2.4-1,5.3c1.6,2.9,5.3,4.5,10,1.4
	c4.7-3,3.5-7.6,2.7-9C27,114.5,25,112.9,23.2,113.9z"/>
<path class="st0" d="M241.5,176.4c0.9-1.9,0.1-2.4,0.5-3.9c0.5-1.5,1.9-2.7,2.2-3.8c0.3-1.1,0.5-3.5-2.6-4.7
	c-3.1-1.2-6.9-0.1-8.6,5.3c-1.7,5.3,2.1,8.1,3.7,8.6C238.1,178.3,240.7,178.3,241.5,176.4z"/>
<path class="st0" d="M-0.8,294.2c0.9-1.9,0.1-2.4,0.5-3.9c0.5-1.5,1.9-2.7,2.2-3.8c0.3-1.1,0.5-3.5-2.6-4.7c-3.1-1.2-6.9,0-8.6,5.3
	c-1.7,5.3,2.1,8.1,3.7,8.6C-4.2,296.1-1.7,296.1-0.8,294.2z"/>
<path class="st0" d="M387.2,249.2c0.9-1.9,0.1-2.4,0.5-3.9c0.5-1.5,1.9-2.7,2.2-3.8c0.3-1.1,0.5-3.5-2.6-4.7s-6.9-0.1-8.6,5.3
	c-1.7,5.3,2.1,8.1,3.7,8.6C383.8,251.1,386.4,251.1,387.2,249.2z"/>
<path class="st0" d="M361.2,150.8c1.1,1.8,1.9,1.5,2.9,2.7c0.9,1.3,1.1,3.1,1.8,4c0.8,0.9,2.5,2.5,5.4,0.7c2.8-1.8,4.1-5.6,0.7-10.1
	c-3.4-4.5-7.8-3-9.2-2.1C361.6,146.9,360.1,149,361.2,150.8z"/>
<path class="st0" d="M174.6,231.2l-8.8-3.1l1.7,8.6L174.6,231.2z"/>
<path class="st0" d="M40.6,205.2l-8.8-3.1l1.7,8.6L40.6,205.2z"/>
<path class="st0" d="M277.6,212.2l-8.8-3.1l1.7,8.6L277.6,212.2z"/>
<path class="st0" d="M316.6,281.2l-8.8-3.1l1.7,8.6L316.6,281.2z"/>
<path class="st0" d="M344.6,138.2l-8.8-3.1l1.7,8.6L344.6,138.2z"/>
<path class="st0" d="M183.6,64.2l-8.8-3.1l1.7,8.6L183.6,64.2z"/>
<path class="st0" d="M-4.4,94.2l-8.8-3.1l1.7,8.6L-4.4,94.2z"/>
<path class="st0" d="M275.6,4.2l-8.8-3.1l1.7,8.6L275.6,4.2z"/>
<path class="st0" d="M195.9,184.8l8.2-8.8l8.8,8.2l-8.2,8.8L195.9,184.8z"/>
<path class="st0" d="M14.9,268.8l8.2-8.8l8.8,8.2l-8.2,8.8L14.9,268.8z"/>
<path class="st0" d="M234.9,113.8l8.2-8.8l8.8,8.2l-8.2,8.8L234.9,113.8z"/>
<path class="st0" d="M340.9,29.8l8.2-8.8l8.8,8.2l-8.2,8.8L340.9,29.8z"/>
<path class="st0" d="M89.9,258.8l8.2-8.8l8.8,8.2l-8.2,8.8L89.9,258.8z"/>
<path class="st0" d="M230.9,33.8l8.2-8.8l8.8,8.2l-8.2,8.8L230.9,33.8z"/>
<path class="st0" d="M-11.1,186.8l8.2-8.8l8.8,8.2l-8.2,8.8L-11.1,186.8z"/>
<path class="st0" d="M81.9,116.8l8.2-8.8l8.8,8.2l-8.2,8.8L81.9,116.8z"/>
<path class="st0" d="M77.9-1.2l8.2-8.8l8.8,8.2L86.7,7L77.9-1.2z"/>
<path class="st0" d="M13.1-8l7.5,0.2l-0.2,7.5l-7.5-0.2L13.1-8z"/>
<path class="st0" d="M305.9,119.3l5.3-5.3l5.3,5.3l-5.3,5.3L305.9,119.3z"/>
<path class="st0" d="M385.9,21.3l5.3-5.3l5.3,5.3l-5.3,5.3L385.9,21.3z"/>
<path class="st0" d="M350.9,234.3l5.3-5.3l5.3,5.3l-5.3,5.3L350.9,234.3z"/>
<path class="st0" d="M382.9,78.3l5.3-5.3l5.3,5.3l-5.3,5.3L382.9,78.3z"/>
<path class="st0" d="M74.1,149l7.5,0.2l-0.2,7.5l-7.5-0.2L74.1,149z"/>
<path class="st1" d="M140,68.9c-2.6-0.6-3.8-1.8-4.4-3c-0.6-1.2-0.6-2.5-0.5-3.5c0.1-0.8,0.5-1.8,1.2-2.9l0,0
	c0.6-1.1,1.2-2.5,1.5-3.9l0,0l0,0c0.1-1.2-0.1-2.1-0.3-2.8c0-0.2-0.1-0.3-0.1-0.5c-0.2-0.8-0.3-1.7,0.2-3.3c0.4-1.4,1.5-2.3,2.8-2.8
	c1.4-0.5,2.9-0.5,4.2-0.3c1.2,0.2,3.5,1.2,5.3,3.2c1.8,2,3.1,5,2.4,9.4c-0.7,4.5-2.5,7.4-4.7,9C145.3,69.1,142.6,69.5,140,68.9z
	 M133.6,62.3c-0.1,1.1-0.1,2.7,0.7,4.3c0.8,1.6,2.5,3.1,5.4,3.8c2.9,0.7,6.1,0.3,8.7-1.6c2.6-1.9,4.6-5.2,5.3-10
	c0.8-4.9-0.7-8.4-2.8-10.7c-2-2.3-4.6-3.4-6.1-3.7c-1.4-0.3-3.3-0.2-5,0.4c-1.7,0.6-3.2,1.8-3.7,3.8c-0.5,1.8-0.4,3-0.2,4
	c0,0.2,0.1,0.4,0.1,0.5c0.2,0.7,0.3,1.3,0.3,2.3c-0.2,1.2-0.8,2.3-1.4,3.5l-0.1,0.1C134.3,60,133.7,61.2,133.6,62.3z M138.6,59.5
	C138.6,59.5,138.5,59.5,138.6,59.5c0-0.1,0-0.2,0.1-0.5l0-0.1c0.3-0.6,0.8-1.5,1-2.7c0.1-1.1-0.1-2-0.2-2.7c0-0.1,0-0.2-0.1-0.3
	c-0.1-0.4-0.1-0.5-0.1-0.6c0,0,0,0,0,0l0,0c0,0,0.1,0,0.2,0c0.1,0.1,0.3,0.3,0.5,0.6c0.3,0.6,0.5,1.7,0.3,2.9
	c-0.2,1.3-0.7,2.3-1.2,2.9C138.9,59.4,138.7,59.5,138.6,59.5z M138.2,56.1c-0.1,0.9-0.5,1.6-0.8,2.2l0,0.1c-0.1,0.3-0.3,0.6-0.4,1
	c0,0.2-0.1,0.4,0,0.7c0.1,0.2,0.2,0.4,0.4,0.6c0.4,0.4,1,0.5,1.5,0.4c0.5-0.1,0.9-0.5,1.3-0.9c0.7-0.8,1.3-2.1,1.6-3.6
	c0.3-1.5,0.1-2.9-0.4-3.9c-0.3-0.5-0.6-0.9-1-1.2c-0.4-0.3-1-0.4-1.6-0.1c-0.2,0.1-0.4,0.2-0.6,0.4c-0.2,0.2-0.3,0.4-0.3,0.7
	c-0.1,0.4,0,0.8,0.1,1.2c0,0.1,0,0.2,0.1,0.3C138.2,54.6,138.3,55.3,138.2,56.1z"/>
<path class="st1" d="M219.2,0c0.5-2.6,1.7-3.8,2.9-4.5c1.2-0.6,2.5-0.7,3.5-0.6c0.8,0.1,1.8,0.5,3,1.1l0,0c1.2,0.5,2.5,1.2,3.9,1.4
	l0,0l0,0c1.2,0.1,2.1-0.2,2.8-0.4c0.2,0,0.3-0.1,0.5-0.1c0.8-0.2,1.7-0.3,3.3,0.1c1.4,0.4,2.3,1.4,2.8,2.7c0.5,1.4,0.6,2.9,0.4,4.2
	c-0.2,1.2-1.1,3.5-3.1,5.3c-1.9,1.8-4.9,3.2-9.4,2.6c-4.5-0.6-7.4-2.3-9.1-4.5C219.1,5.2,218.7,2.5,219.2,0z M225.7-6.6
	c-1.1-0.1-2.7-0.1-4.3,0.8c-1.6,0.9-3,2.5-3.6,5.5c-0.6,2.9-0.1,6.1,1.8,8.6c1.9,2.6,5.3,4.4,10.1,5.1c4.9,0.6,8.3-0.9,10.6-3
	c2.2-2.1,3.3-4.7,3.5-6.2c0.2-1.5,0.2-3.3-0.5-4.9c-0.6-1.6-1.8-3.1-3.9-3.7c-1.8-0.5-3-0.3-4-0.1c-0.2,0-0.4,0.1-0.5,0.1
	c-0.7,0.2-1.3,0.3-2.3,0.3c-1.2-0.2-2.3-0.7-3.5-1.3L229-5.4C228-6,226.8-6.5,225.7-6.6z M228.6-1.7C228.6-1.7,228.6-1.8,228.6-1.7
	c0.1-0.1,0.2,0,0.5,0.1l0.1,0c0.6,0.3,1.5,0.8,2.8,0.9c1.1,0.1,2-0.1,2.7-0.3c0.1,0,0.2,0,0.3-0.1c0.4-0.1,0.5-0.1,0.6-0.1
	c0,0,0,0,0,0l0,0c0,0,0,0.1,0,0.2c-0.1,0.1-0.3,0.3-0.6,0.5c-0.6,0.3-1.7,0.6-2.9,0.4c-1.3-0.2-2.3-0.7-2.9-1.2
	C228.7-1.4,228.6-1.6,228.6-1.7z M232-2.1c-0.9-0.1-1.6-0.4-2.2-0.7l-0.1,0c-0.3-0.1-0.6-0.3-1-0.4c-0.2,0-0.4,0-0.7,0
	c-0.2,0.1-0.4,0.2-0.6,0.4c-0.4,0.4-0.5,1-0.4,1.6c0.1,0.5,0.5,0.9,0.9,1.3c0.8,0.7,2.1,1.2,3.6,1.5c1.5,0.3,2.9,0,3.9-0.5
	c0.5-0.3,0.9-0.6,1.1-1.1c0.3-0.5,0.3-1,0.1-1.6c-0.1-0.2-0.3-0.4-0.5-0.6c-0.2-0.2-0.4-0.2-0.7-0.3c-0.4-0.1-0.8,0-1.2,0.1
	c-0.1,0-0.2,0.1-0.3,0.1C233.5-2.2,232.8-2.1,232-2.1z"/>
<path class="st1" d="M346.2,62c0.5-2.6,1.7-3.8,2.9-4.5c1.2-0.6,2.5-0.7,3.5-0.6c0.8,0.1,1.8,0.5,3,1.1l0,0c1.2,0.5,2.5,1.2,3.9,1.4
	l0,0l0,0c1.2,0.1,2.1-0.2,2.8-0.4c0.2,0,0.3-0.1,0.5-0.1c0.8-0.2,1.7-0.3,3.3,0.1c1.4,0.4,2.3,1.4,2.8,2.7c0.5,1.4,0.6,2.9,0.4,4.2
	c-0.2,1.2-1.1,3.5-3.1,5.3c-1.9,1.8-4.9,3.2-9.4,2.6c-4.5-0.6-7.4-2.3-9.1-4.5C346.1,67.2,345.7,64.5,346.2,62z M352.7,55.4
	c-1.1-0.1-2.7-0.1-4.3,0.8c-1.6,0.9-3,2.5-3.6,5.5c-0.6,2.9-0.1,6.1,1.8,8.6c1.9,2.6,5.3,4.4,10.1,5.1c4.9,0.6,8.3-0.9,10.6-3
	c2.2-2.1,3.3-4.7,3.5-6.2c0.2-1.5,0.1-3.3-0.5-4.9c-0.6-1.6-1.8-3.1-3.9-3.7c-1.8-0.5-3-0.3-4-0.1c-0.2,0-0.4,0.1-0.5,0.1
	c-0.7,0.2-1.3,0.3-2.3,0.3c-1.2-0.2-2.3-0.7-3.5-1.3l-0.1-0.1C355,56,353.8,55.5,352.7,55.4z M355.6,60.3
	C355.6,60.3,355.6,60.2,355.6,60.3c0.1-0.1,0.2,0,0.5,0.1l0.1,0c0.6,0.3,1.5,0.8,2.8,0.9c1.1,0.1,2-0.1,2.7-0.3c0.1,0,0.2,0,0.3-0.1
	c0.4-0.1,0.5-0.1,0.6-0.1c0,0,0,0,0,0l0,0c0,0,0,0.1,0,0.2c-0.1,0.1-0.3,0.3-0.6,0.5c-0.6,0.3-1.7,0.6-2.9,0.4
	c-1.3-0.2-2.4-0.7-2.9-1.2C355.7,60.6,355.6,60.4,355.6,60.3z M359,59.9c-0.9-0.1-1.6-0.4-2.2-0.7l-0.1,0c-0.3-0.1-0.6-0.3-1-0.4
	c-0.2,0-0.4,0-0.7,0c-0.2,0.1-0.4,0.2-0.6,0.4c-0.4,0.4-0.5,1-0.4,1.6c0.1,0.5,0.5,0.9,0.9,1.3c0.8,0.7,2.1,1.2,3.6,1.5
	c1.5,0.3,2.9,0,3.9-0.5c0.5-0.3,0.9-0.6,1.1-1.1c0.3-0.5,0.3-1,0.1-1.6c-0.1-0.2-0.3-0.4-0.5-0.6c-0.2-0.2-0.4-0.2-0.7-0.3
	c-0.4-0.1-0.8,0-1.2,0.1c-0.1,0-0.2,0.1-0.3,0.1C360.5,59.8,359.8,59.9,359,59.9z"/>
<path class="st1" d="M276.8,105.5c2.6-0.4,4.2,0.3,5.2,1.2c1,0.9,1.5,2.2,1.7,3c0.2,0.8,0.1,1.8,0,3.2v0c-0.1,1.3-0.3,2.7,0,4.2l0,0
	l0,0c0.4,1.2,0.9,1.9,1.3,2.5c0.1,0.1,0.2,0.3,0.3,0.4c0.5,0.7,0.9,1.5,1,3.1c0.1,1.4-0.5,2.6-1.6,3.6c-1.1,0.9-2.6,1.6-3.8,1.8
	c-1.2,0.2-3.7,0.1-6.1-1.1c-2.4-1.2-4.7-3.6-5.6-8c-1-4.5-0.3-7.8,1.2-10.1C271.8,107.2,274.2,105.9,276.8,105.5z M285.1,109.4
	c-0.3-1-0.9-2.6-2.2-3.8c-1.4-1.2-3.4-2-6.4-1.6c-3,0.4-5.8,1.9-7.5,4.6c-1.8,2.7-2.4,6.5-1.4,11.2c1,4.8,3.7,7.6,6.4,9
	c2.7,1.4,5.5,1.5,7,1.3c1.5-0.3,3.2-1,4.5-2.1c1.3-1.1,2.3-2.8,2.2-4.9c-0.2-1.9-0.7-2.9-1.2-3.8c-0.1-0.2-0.2-0.3-0.3-0.5
	c-0.4-0.6-0.8-1.1-1.1-2c-0.2-1.2-0.1-2.5,0-3.7l0-0.1C285.3,111.8,285.4,110.5,285.1,109.4z M281.5,113.8
	C281.5,113.8,281.5,113.8,281.5,113.8c0.1,0.1,0.1,0.2,0,0.5l0,0.1c-0.1,0.7-0.2,1.7,0.1,2.9c0.3,1,0.8,1.9,1.2,2.4
	c0.1,0.1,0.1,0.2,0.2,0.3c0.2,0.3,0.3,0.5,0.3,0.6c0,0,0,0,0,0l0,0c0,0,0,0-0.2,0c-0.1,0-0.4-0.1-0.7-0.4c-0.5-0.5-1.1-1.4-1.3-2.6
	c-0.2-1.3-0.1-2.4,0.1-3.1C281.3,114,281.4,113.9,281.5,113.8z M283,116.9c-0.2-0.9-0.1-1.7,0-2.3l0-0.1c0-0.3,0.1-0.7,0-1
	c0-0.2-0.1-0.4-0.3-0.6c-0.2-0.2-0.4-0.3-0.6-0.4c-0.6-0.2-1.1-0.1-1.6,0.2c-0.4,0.3-0.7,0.8-0.9,1.3c-0.4,1-0.4,2.4-0.2,3.9
	c0.3,1.5,1,2.8,1.8,3.5c0.4,0.4,0.9,0.6,1.4,0.7c0.5,0.1,1.1,0,1.5-0.4c0.2-0.2,0.3-0.4,0.4-0.6c0.1-0.3,0.1-0.5,0-0.7
	c-0.1-0.4-0.3-0.8-0.5-1.1c-0.1-0.1-0.1-0.2-0.2-0.3C283.6,118.3,283.2,117.7,283,116.9z"/>
<path class="st1" d="M255.9,228.4c0.7,2.5,0.3,4.2-0.5,5.3c-0.8,1.1-1.9,1.8-2.8,2.2c-0.8,0.3-1.8,0.4-3.1,0.4h0
	c-1.3,0.1-2.8,0.1-4.2,0.6l0,0l0,0c-1.1,0.5-1.8,1.1-2.3,1.7c-0.1,0.1-0.2,0.2-0.3,0.3c-0.6,0.5-1.3,1.1-2.9,1.5
	c-1.4,0.3-2.7-0.2-3.8-1.1c-1.1-1-1.9-2.3-2.3-3.5c-0.4-1.1-0.7-3.6,0.2-6.2c0.9-2.5,2.8-5.2,7.1-6.7c4.3-1.6,7.7-1.4,10.1-0.3
	C253.5,223.7,255.2,225.9,255.9,228.4z M253.3,237.2c1-0.4,2.4-1.2,3.4-2.7c1-1.5,1.5-3.6,0.6-6.5c-0.8-2.9-2.7-5.4-5.7-6.7
	c-2.9-1.3-6.7-1.5-11.3,0.3c-4.6,1.7-6.9,4.7-7.9,7.6c-1,2.9-0.7,5.7-0.2,7.1c0.5,1.4,1.4,3,2.7,4.1c1.3,1.2,3.1,1.9,5.1,1.4
	c1.8-0.4,2.8-1.1,3.6-1.8c0.1-0.1,0.3-0.3,0.4-0.4c0.5-0.5,1-0.9,1.9-1.3c1.2-0.4,2.4-0.4,3.7-0.5l0.1,0
	C251,237.7,252.3,237.7,253.3,237.2z M248.4,234.3C248.4,234.3,248.5,234.3,248.4,234.3c-0.1,0.1-0.2,0.1-0.5,0.1h-0.1
	c-0.7,0-1.7,0-2.9,0.5c-1,0.4-1.7,1.1-2.2,1.5c-0.1,0.1-0.2,0.1-0.2,0.2c-0.3,0.2-0.4,0.3-0.5,0.4c0,0,0,0,0,0h0c0,0-0.1,0,0-0.2
	c0-0.2,0.1-0.4,0.3-0.7c0.4-0.6,1.2-1.3,2.4-1.7c1.3-0.4,2.4-0.5,3.1-0.4C248.2,234.1,248.3,234.2,248.4,234.3z M245.6,236.2
	c0.9-0.4,1.6-0.4,2.3-0.4l0.1,0c0.3,0,0.7,0,1-0.1c0.2-0.1,0.4-0.2,0.6-0.4c0.2-0.2,0.3-0.4,0.3-0.6c0.1-0.6,0-1.1-0.4-1.5
	c-0.4-0.4-0.9-0.6-1.4-0.7c-1.1-0.2-2.5-0.1-3.9,0.4c-1.5,0.5-2.6,1.4-3.2,2.3c-0.3,0.5-0.5,1-0.5,1.5c0,0.5,0.2,1.1,0.6,1.4
	c0.2,0.2,0.4,0.3,0.7,0.3c0.3,0,0.5,0,0.7-0.1c0.4-0.1,0.7-0.4,1-0.6c0.1-0.1,0.2-0.2,0.3-0.2C244.3,237,244.8,236.6,245.6,236.2z"
	/>
<path class="st1" d="M324.2,240.9c-2.4,1.1-4.1,0.8-5.3,0.2c-1.2-0.6-2-1.7-2.5-2.5c-0.4-0.7-0.6-1.7-0.8-3.1l0,0
	c-0.2-1.3-0.5-2.7-1.1-4l0,0l0,0c-0.7-1-1.4-1.6-1.9-2.1c-0.1-0.1-0.2-0.2-0.4-0.3c-0.6-0.5-1.2-1.2-1.8-2.7
	c-0.5-1.4-0.2-2.7,0.6-3.9c0.8-1.2,2-2.2,3.1-2.7c1.1-0.5,3.5-1.1,6.1-0.6c2.6,0.5,5.5,2.1,7.6,6.1c2.2,4,2.4,7.4,1.6,10
	C328.5,237.9,326.6,239.8,324.2,240.9z M315.1,239.4c0.5,0.9,1.5,2.2,3.1,3c1.6,0.8,3.8,1,6.6-0.2c2.8-1.2,5-3.4,5.9-6.5
	c0.9-3.1,0.6-6.9-1.7-11.2c-2.3-4.4-5.6-6.3-8.6-6.9c-3-0.6-5.7,0.1-7.1,0.7c-1.3,0.6-2.8,1.8-3.7,3.3c-1,1.5-1.5,3.3-0.7,5.3
	c0.7,1.8,1.5,2.6,2.2,3.3c0.1,0.1,0.3,0.2,0.4,0.4c0.6,0.5,1.1,0.9,1.6,1.7c0.5,1.1,0.8,2.3,1,3.6l0,0.1
	C314.2,237.2,314.5,238.5,315.1,239.4z M317.4,234.2C317.3,234.3,317.3,234.3,317.4,234.2c-0.1,0-0.1-0.2-0.2-0.5l0-0.1
	c-0.1-0.7-0.2-1.7-0.9-2.8c-0.6-0.9-1.3-1.6-1.8-2c-0.1-0.1-0.2-0.1-0.2-0.2c-0.3-0.2-0.4-0.4-0.4-0.5c0,0,0,0,0,0l0,0
	c0,0,0-0.1,0.2-0.1c0.1,0,0.4,0,0.7,0.2c0.7,0.3,1.4,1,2,2.2c0.6,1.2,0.8,2.3,0.8,3.1C317.5,233.9,317.4,234.1,317.4,234.2z
	 M315,231.7c0.5,0.8,0.6,1.6,0.7,2.2l0,0.1c0,0.3,0.1,0.7,0.2,1c0.1,0.2,0.2,0.4,0.4,0.5c0.2,0.1,0.4,0.2,0.7,0.2
	c0.6,0.1,1.1-0.2,1.5-0.6c0.3-0.4,0.5-1,0.5-1.5c0.1-1.1-0.2-2.5-0.9-3.8c-0.7-1.4-1.7-2.4-2.7-2.9c-0.5-0.2-1-0.4-1.5-0.3
	c-0.5,0.1-1,0.3-1.3,0.8c-0.1,0.2-0.2,0.5-0.2,0.7c0,0.3,0.1,0.5,0.2,0.7c0.2,0.4,0.5,0.7,0.8,0.9c0.1,0.1,0.2,0.2,0.3,0.2
	C314.1,230.5,314.6,231,315,231.7z"/>
<path class="st1" d="M13.5,234c-0.3,2.6-1.3,4-2.4,4.8c-1.1,0.8-2.4,1-3.4,1c-0.8,0-1.8-0.3-3.1-0.7l0,0c-1.2-0.4-2.6-0.9-4.1-1l0,0
	l0,0c-1.2,0.1-2.1,0.4-2.8,0.7c-0.2,0.1-0.3,0.1-0.4,0.2c-0.8,0.3-1.6,0.5-3.2,0.3c-1.4-0.2-2.5-1.1-3.1-2.4
	c-0.7-1.3-0.9-2.8-0.9-4.1c0.1-1.2,0.7-3.6,2.5-5.6c1.7-2,4.5-3.7,9-3.7c4.6,0.1,7.7,1.5,9.5,3.5C13,228.8,13.8,231.4,13.5,234z
	 M7.8,241.2c1.1,0,2.7-0.3,4.2-1.3c1.5-1,2.7-2.8,3-5.8c0.3-3-0.6-6-2.8-8.4c-2.2-2.3-5.7-3.8-10.6-3.9c-4.9-0.1-8.2,1.8-10.2,4.2
	c-2,2.3-2.7,5-2.8,6.5c-0.1,1.5,0.2,3.3,1,4.9c0.8,1.6,2.2,2.9,4.2,3.2c1.9,0.3,3,0,4-0.4c0.2-0.1,0.4-0.1,0.5-0.2
	c0.7-0.3,1.3-0.5,2.2-0.6c1.2,0.1,2.4,0.5,3.6,0.9l0.1,0C5.5,240.9,6.7,241.3,7.8,241.2z M4.4,236.7C4.4,236.7,4.4,236.8,4.4,236.7
	c-0.1,0.1-0.2,0-0.5-0.1l-0.1,0C3.2,236.3,2.3,236,1,236c-1.1,0-2,0.4-2.6,0.6c-0.1,0-0.2,0.1-0.3,0.1c-0.3,0.1-0.5,0.2-0.6,0.1
	c0,0,0,0,0,0l0,0c0,0,0-0.1,0-0.2c0.1-0.1,0.2-0.3,0.5-0.6c0.6-0.4,1.6-0.8,2.9-0.7c1.3,0.1,2.4,0.4,3,0.8
	C4.2,236.4,4.4,236.6,4.4,236.7z M1.1,237.5c0.9,0,1.6,0.2,2.3,0.5l0.1,0c0.3,0.1,0.7,0.3,1,0.3c0.2,0,0.4,0,0.7-0.1
	c0.2-0.1,0.4-0.3,0.5-0.5c0.3-0.5,0.4-1.1,0.2-1.6c-0.2-0.5-0.6-0.9-1.1-1.2c-0.9-0.6-2.3-1-3.8-1.1c-1.6-0.1-2.9,0.3-3.8,1
	c-0.4,0.3-0.8,0.7-1,1.2c-0.2,0.5-0.2,1,0.1,1.6c0.1,0.2,0.3,0.4,0.5,0.5c0.2,0.1,0.5,0.2,0.7,0.2c0.4,0,0.8-0.1,1.2-0.2
	c0.1,0,0.2-0.1,0.3-0.1C-0.4,237.8,0.2,237.5,1.1,237.5z"/>
<path class="st1" d="M46.5,237c-0.4-2.6,0.3-4.2,1.2-5.2c0.9-1,2.1-1.5,3-1.8c0.8-0.2,1.8-0.1,3.2,0h0c1.3,0.1,2.8,0.2,4.2,0l0,0
	l0,0c1.2-0.4,1.9-0.9,2.5-1.3c0.1-0.1,0.3-0.2,0.4-0.3c0.7-0.5,1.5-0.9,3.1-1c1.4-0.1,2.7,0.5,3.6,1.6c1,1.1,1.6,2.5,1.8,3.8
	c0.2,1.2,0.2,3.7-1.1,6.1c-1.2,2.4-3.5,4.7-7.9,5.7c-4.5,1-7.8,0.4-10.1-1.1C48.3,241.9,46.9,239.6,46.5,237z M50.3,228.6
	c-1,0.3-2.6,0.9-3.8,2.2c-1.2,1.4-2,3.4-1.5,6.4c0.4,3,2,5.7,4.7,7.5c2.7,1.7,6.5,2.4,11.2,1.3c4.8-1.1,7.5-3.7,8.9-6.5
	c1.4-2.7,1.5-5.5,1.2-7c-0.3-1.4-1-3.2-2.2-4.5c-1.2-1.3-2.8-2.3-4.9-2.1c-1.9,0.2-2.9,0.7-3.8,1.3c-0.2,0.1-0.3,0.2-0.5,0.3
	c-0.6,0.4-1.1,0.8-2,1.1c-1.2,0.2-2.5,0.1-3.7,0l-0.1,0C52.7,228.4,51.4,228.3,50.3,228.6z M54.8,232.2
	C54.7,232.2,54.7,232.2,54.8,232.2c0.1-0.1,0.2-0.1,0.5,0l0.1,0c0.7,0.1,1.7,0.2,2.9-0.1c1-0.3,1.9-0.8,2.4-1.2
	c0.1-0.1,0.2-0.1,0.3-0.2c0.3-0.2,0.5-0.3,0.6-0.3c0,0,0,0,0,0l0,0c0,0,0,0,0,0.2c0,0.1-0.1,0.4-0.4,0.7c-0.5,0.5-1.4,1.1-2.6,1.4
	c-1.3,0.3-2.4,0.2-3.1-0.1C55,232.4,54.8,232.3,54.8,232.2z M57.8,230.6c-0.9,0.3-1.7,0.2-2.3,0.1l-0.1,0c-0.3,0-0.7-0.1-1,0
	c-0.2,0-0.4,0.1-0.6,0.3c-0.2,0.2-0.3,0.4-0.4,0.6c-0.2,0.6-0.1,1.1,0.2,1.6c0.3,0.4,0.8,0.7,1.3,0.9c1,0.4,2.4,0.4,3.9,0.1
	c1.5-0.3,2.7-1,3.5-1.9c0.4-0.4,0.6-0.9,0.7-1.4c0.1-0.5,0-1.1-0.5-1.5c-0.2-0.2-0.4-0.3-0.6-0.4c-0.3-0.1-0.5-0.1-0.7,0
	c-0.4,0.1-0.8,0.3-1.1,0.5c-0.1,0.1-0.2,0.1-0.3,0.2C59.2,230,58.6,230.4,57.8,230.6z"/>
<path class="st1" d="M111.1,159.5c1.1-2.4,2.5-3.4,3.8-3.8c1.3-0.4,2.6-0.1,3.5,0.1c0.8,0.2,1.6,0.9,2.7,1.7l0,0
	c1,0.8,2.2,1.7,3.6,2.2l0,0l0,0c1.2,0.3,2.1,0.3,2.8,0.2c0.2,0,0.3,0,0.5,0c0.8,0,1.7,0,3.2,0.8c1.3,0.6,2,1.9,2.2,3.3
	c0.2,1.4,0,3-0.5,4.1c-0.4,1.1-1.8,3.2-4.1,4.6c-2.3,1.4-5.5,2.1-9.7,0.6c-4.3-1.5-6.8-3.9-7.9-6.3
	C109.9,164.6,110,161.9,111.1,159.5z M118.8,154.4c-1-0.3-2.6-0.6-4.4-0.1c-1.8,0.5-3.5,1.8-4.7,4.6s-1.4,5.9,0,8.8
	c1.4,2.9,4.2,5.5,8.8,7.1c4.7,1.7,8.3,0.9,11-0.7c2.6-1.6,4.2-3.9,4.8-5.3c0.5-1.4,0.8-3.2,0.6-4.9c-0.3-1.7-1.1-3.5-3-4.4
	c-1.7-0.8-2.8-1-3.9-0.9c-0.2,0-0.4,0-0.6,0c-0.7,0-1.4,0.1-2.3-0.2c-1.1-0.5-2.1-1.2-3.2-2l-0.1-0.1
	C120.9,155.6,119.9,154.8,118.8,154.4z M120.6,159.8C120.6,159.8,120.6,159.8,120.6,159.8c0.1,0,0.2,0.1,0.4,0.2l0.1,0.1
	c0.5,0.4,1.3,1.1,2.5,1.5c1,0.3,2,0.3,2.7,0.3c0.1,0,0.2,0,0.3,0c0.4,0,0.5,0,0.6,0.1c0,0,0,0,0,0v0c0,0,0,0.1-0.1,0.2
	c-0.1,0.1-0.3,0.3-0.7,0.4c-0.7,0.2-1.8,0.2-2.9-0.3c-1.2-0.5-2.2-1.2-2.6-1.7C120.7,160.2,120.6,159.9,120.6,159.8z M124,160.1
	c-0.9-0.3-1.5-0.8-2-1.2l-0.1,0c-0.2-0.2-0.5-0.4-0.9-0.6c-0.2-0.1-0.4-0.1-0.7-0.1c-0.3,0-0.5,0.1-0.6,0.3
	c-0.5,0.4-0.7,0.9-0.7,1.4c0,0.5,0.3,1,0.6,1.4c0.7,0.8,1.8,1.7,3.2,2.2c1.5,0.6,2.9,0.6,3.9,0.3c0.5-0.2,1-0.4,1.3-0.8
	c0.4-0.4,0.6-0.9,0.4-1.5c-0.1-0.2-0.2-0.5-0.3-0.7c-0.2-0.2-0.4-0.3-0.6-0.4c-0.4-0.1-0.8-0.2-1.2-0.2c-0.1,0-0.2,0-0.4,0
	C125.5,160.4,124.8,160.4,124,160.1z"/>
<path class="st1" d="M144.6,276.1c-1.3-2.3-1.3-4-0.9-5.2c0.5-1.3,1.4-2.2,2.1-2.8c0.7-0.5,1.6-0.8,2.9-1.2l0,0
	c1.2-0.4,2.6-0.8,3.9-1.6l0,0l0,0c0.9-0.8,1.4-1.5,1.8-2.2c0.1-0.1,0.2-0.3,0.3-0.4c0.5-0.7,1-1.4,2.5-2.1c1.3-0.7,2.7-0.5,3.9,0.1
	c1.3,0.6,2.4,1.8,3.1,2.8c0.6,1,1.5,3.3,1.3,6c-0.2,2.6-1.5,5.7-5.2,8.3c-3.8,2.6-7.1,3.3-9.8,2.8
	C148,280.1,145.9,278.4,144.6,276.1z M144.9,266.9c-0.8,0.6-2,1.8-2.6,3.5c-0.6,1.7-0.5,3.9,1,6.5c1.5,2.6,4,4.6,7.2,5.1
	c3.2,0.6,6.9-0.3,10.9-3c4.1-2.8,5.6-6.3,5.8-9.4c0.2-3-0.7-5.7-1.5-6.9c-0.8-1.2-2.1-2.5-3.7-3.3c-1.6-0.8-3.5-1.1-5.3-0.1
	c-1.7,0.9-2.4,1.7-3,2.6c-0.1,0.2-0.2,0.3-0.3,0.5c-0.4,0.6-0.7,1.1-1.5,1.8c-1,0.7-2.2,1-3.5,1.4l-0.1,0
	C147.1,265.8,145.8,266.2,144.9,266.9z M150.4,268.6C150.3,268.6,150.3,268.5,150.4,268.6c0-0.1,0.2-0.1,0.4-0.2l0.1,0
	c0.7-0.2,1.7-0.4,2.6-1.2c0.9-0.7,1.4-1.5,1.8-2c0.1-0.1,0.1-0.2,0.2-0.2c0.2-0.3,0.3-0.4,0.4-0.5c0,0,0,0,0,0h0c0,0,0.1,0,0.1,0.2
	c0,0.1,0,0.4-0.1,0.7c-0.2,0.7-0.8,1.6-1.9,2.2c-1.1,0.7-2.2,1.1-2.9,1.1C150.7,268.7,150.5,268.6,150.4,268.6z M152.6,266
	c-0.7,0.6-1.5,0.8-2.1,0.9l-0.1,0c-0.3,0.1-0.7,0.2-1,0.4c-0.2,0.1-0.4,0.3-0.5,0.5c-0.1,0.2-0.2,0.5-0.1,0.7c0,0.6,0.3,1.1,0.8,1.4
	c0.4,0.3,1,0.3,1.5,0.3c1.1-0.1,2.4-0.5,3.7-1.4c1.3-0.9,2.2-2,2.5-3c0.2-0.5,0.2-1.1,0.1-1.6c-0.1-0.5-0.4-1-1-1.2
	c-0.2-0.1-0.5-0.1-0.7-0.1c-0.3,0-0.5,0.1-0.7,0.2c-0.3,0.2-0.6,0.6-0.8,0.9c-0.1,0.1-0.1,0.2-0.2,0.3
	C153.7,264.9,153.3,265.5,152.6,266z"/>
<path class="st1" d="M-10.1,35.3c-2.6-0.6-3.8-1.8-4.4-3c-0.6-1.2-0.6-2.5-0.5-3.5c0.1-0.8,0.5-1.8,1.2-2.9l0,0
	c0.6-1.1,1.2-2.5,1.5-3.9l0,0l0,0c0.1-1.2-0.1-2.1-0.3-2.8c0-0.2-0.1-0.3-0.1-0.5c-0.2-0.8-0.3-1.7,0.2-3.3c0.4-1.4,1.5-2.3,2.8-2.8
	c1.4-0.5,2.9-0.5,4.2-0.3c1.2,0.2,3.5,1.2,5.3,3.2c1.8,2,3.1,5,2.4,9.4c-0.7,4.5-2.5,7.4-4.7,9C-4.8,35.5-7.5,35.9-10.1,35.3z
	 M-16.5,28.7c-0.1,1.1-0.1,2.7,0.7,4.3c0.8,1.6,2.5,3.1,5.4,3.8c2.9,0.7,6.1,0.3,8.7-1.6c2.6-1.9,4.6-5.2,5.3-10
	c0.8-4.9-0.7-8.4-2.8-10.7c-2-2.3-4.6-3.4-6.1-3.7c-1.4-0.3-3.3-0.2-5,0.4c-1.7,0.6-3.2,1.8-3.7,3.8c-0.5,1.8-0.4,3-0.2,4
	c0,0.2,0.1,0.4,0.1,0.5c0.2,0.7,0.3,1.3,0.3,2.3c-0.2,1.2-0.8,2.3-1.4,3.5l-0.1,0.1C-15.8,26.4-16.4,27.5-16.5,28.7z M-11.5,25.9
	C-11.6,25.9-11.6,25.9-11.5,25.9c0-0.1,0-0.2,0.1-0.5l0-0.1c0.3-0.6,0.8-1.5,1-2.7c0.1-1.1-0.1-2-0.2-2.7c0-0.1,0-0.2-0.1-0.3
	c-0.1-0.4-0.1-0.5-0.1-0.6c0,0,0,0,0,0l0,0c0,0,0.1,0,0.2,0c0.1,0.1,0.3,0.3,0.5,0.6c0.3,0.6,0.5,1.7,0.3,2.9
	c-0.2,1.3-0.7,2.3-1.2,2.9C-11.2,25.7-11.4,25.8-11.5,25.9z M-11.9,22.5c-0.1,0.9-0.5,1.6-0.8,2.2l0,0.1c-0.1,0.3-0.3,0.6-0.4,1
	c0,0.2-0.1,0.4,0,0.7c0.1,0.2,0.2,0.4,0.4,0.6c0.4,0.4,1,0.5,1.5,0.4c0.5-0.1,0.9-0.5,1.3-0.9c0.7-0.8,1.3-2.1,1.6-3.6
	c0.3-1.5,0.1-2.9-0.4-3.9c-0.3-0.5-0.6-0.9-1-1.2c-0.5-0.3-1-0.4-1.6-0.1c-0.2,0.1-0.4,0.2-0.6,0.4c-0.2,0.2-0.3,0.4-0.3,0.7
	c-0.1,0.4,0,0.8,0.1,1.2c0,0.1,0,0.2,0.1,0.3C-11.9,20.9-11.8,21.6-11.9,22.5z"/>
<path class="st1" d="M97.3,81.9c-0.6,2.6-1.8,3.8-3,4.4c-1.2,0.6-2.6,0.6-3.5,0.5c-0.8-0.1-1.7-0.6-2.9-1.2l0,0
	c-1.1-0.6-2.5-1.3-3.9-1.6l0,0l0,0c-1.2-0.1-2.1,0.1-2.8,0.3c-0.2,0-0.3,0.1-0.5,0.1c-0.8,0.2-1.7,0.3-3.2-0.2
	c-1.4-0.4-2.3-1.5-2.7-2.8c-0.5-1.4-0.5-3-0.3-4.2c0.2-1.2,1.2-3.4,3.3-5.2c2-1.7,5-3,9.5-2.3c4.5,0.7,7.4,2.6,8.9,4.8
	C97.5,76.7,97.9,79.4,97.3,81.9z M90.6,88.3c1.1,0.1,2.7,0.1,4.3-0.6c1.6-0.8,3.1-2.4,3.8-5.3c0.7-2.9,0.3-6.1-1.5-8.7
	c-1.9-2.6-5.1-4.6-9.9-5.4c-4.9-0.8-8.4,0.6-10.7,2.7c-2.3,2-3.4,4.6-3.7,6c-0.3,1.4-0.3,3.3,0.3,5c0.6,1.7,1.7,3.2,3.7,3.8
	c1.8,0.5,3,0.4,4,0.2c0.2,0,0.4-0.1,0.5-0.1c0.7-0.2,1.3-0.3,2.3-0.2c1.2,0.3,2.3,0.8,3.5,1.4l0.1,0.1
	C88.3,87.6,89.5,88.2,90.6,88.3z M87.8,83.3C87.8,83.3,87.8,83.3,87.8,83.3c-0.1,0-0.2,0-0.5-0.2l-0.1,0c-0.6-0.3-1.5-0.8-2.7-1
	c-1.1-0.1-2,0.1-2.7,0.2c-0.1,0-0.2,0-0.3,0.1c-0.4,0.1-0.5,0.1-0.6,0.1c0,0,0,0,0,0l0,0c0,0,0-0.1,0-0.2c0.1-0.1,0.3-0.3,0.6-0.5
	c0.6-0.3,1.7-0.5,2.9-0.3c1.3,0.3,2.3,0.8,2.9,1.3C87.7,83,87.8,83.2,87.8,83.3z M84.4,83.6c0.9,0.1,1.6,0.5,2.2,0.8l0.1,0
	c0.3,0.1,0.6,0.3,1,0.4c0.2,0,0.4,0.1,0.7,0c0.2-0.1,0.4-0.2,0.6-0.4c0.4-0.4,0.5-1,0.4-1.5c-0.1-0.5-0.5-0.9-0.9-1.3
	c-0.8-0.7-2.1-1.3-3.6-1.6c-1.5-0.3-2.9-0.1-3.9,0.4c-0.5,0.2-0.9,0.6-1.2,1c-0.3,0.4-0.4,1-0.1,1.5c0.1,0.2,0.2,0.4,0.4,0.6
	c0.2,0.2,0.4,0.3,0.7,0.3c0.4,0.1,0.8,0,1.2-0.1c0.1,0,0.2,0,0.3-0.1C82.9,83.6,83.6,83.5,84.4,83.6z"/>
<path class="st1" d="M261.4,19.8l4.1,5.1l4.9-4.9l5,5l5-5l5,5l5-5l5.5,5.5l-1.1,1.1l-4.5-4.5l-5,5l-5-5l-5,5l-5-5l-5.1,5.1l-3.9-4.9
	l-4,5l-5.1-5.7l1.1-1l3.9,4.3L261.4,19.8z"/>
<path class="st1" d="M19.4,49.8l4.1,5.1l4.9-4.9l5,5l5-5l5,5l5-5l5.5,5.5l-1.1,1.1l-4.5-4.5l-5,5l-5-5l-5,5l-5-5l-5.1,5.1l-3.9-4.9
	l-4,5l-5.1-5.7l1.1-1l3.9,4.3L19.4,49.8z"/>
<path class="st1" d="M161.4,27.1l6.4,1l0.3-7l7.1,0.3l0.3-7.1l7.1,0.3l0.3-7.1l7.8,0.4l-0.1,1.5l-6.3-0.3l-0.3,7.1l-7.1-0.3
	l-0.3,7.1l-7.1-0.3l-0.3,7.2l-6.2-1l0.4,6.3l-7.6-0.7l0.1-1.5l5.8,0.6L161.4,27.1z"/>
<path class="st1" d="M90.5,219.8l5.4-3.6l-4.5-5.4l5.4-4.5l-4.5-5.4l5.4-4.5l-4.5-5.4l6-5l1,1.2l-4.8,4.1l4.5,5.4l-5.4,4.5l4.5,5.4
	l-5.4,4.5l4.6,5.5l-5.3,3.5l4.6,4.4l-6.1,4.6l-0.9-1.2l4.7-3.5L90.5,219.8z"/>
<path class="st1" d="M254.9,190l5.2-4l-4.8-5l5.1-4.9l-4.9-5.1l5.1-4.9l-4.9-5.1l5.6-5.4l1,1.1l-4.6,4.4l4.9,5.1l-5.1,4.9l4.9,5.1
	l-5.1,4.9l5,5.2l-5,3.8l4.9,4.1l-5.8,5l-1-1.1l4.4-3.8L254.9,190z"/>
<path class="st1" d="M140.6,198.8l8.3,1.9l1-9.1l9.2,1l1-9.2l9.2,1l1-9.2l9.9,1.1l-0.2,1.5l-8.4-0.9l-1,9.2l-9.2-1l-1,9.2l-9.2-1
	l-1,9.3l-8.1-1.8l0,8.3l-9.5-1.6l0.2-1.5l7.8,1.3L140.6,198.8z"/>
<path class="st1" d="M168.4,290l4.2,4.9l4.8-5.1l5.2,4.8l4.8-5.2l5.2,4.8l4.8-5.2l5.7,5.3l-1,1.1l-4.6-4.3l-4.8,5.2l-5.2-4.8
	l-4.8,5.2l-5.2-4.8l-4.9,5.2l-4.1-4.8l-3.8,5.1l-5.3-5.5l1.1-1l4.1,4.2L168.4,290z"/>
<path class="st1" d="M252.9,262.9l6.5,0.5l-0.2-7l7.1-0.2l-0.2-7.1l7.1-0.2l-0.2-7.1l7.8-0.2l0,1.5l-6.3,0.2l0.2,7.1l-7.1,0.2
	l0.2,7.1l-7.1,0.2l0.2,7.2l-6.3-0.5l0.9,6.3l-7.6-0.2l0-1.5l5.8,0.1L252.9,262.9z"/>
<path class="st1" d="M152.2,92.2V88h1.5v4.2h3.8v1.5h-3.8V98h-1.5v-4.2h-3.8v-1.5H152.2z"/>
<path class="st1" d="M219.7,102.2V98h1.5v4.2h3.8v1.5h-3.8v4.2h-1.5v-4.2h-3.8v-1.5H219.7z"/>
<path class="st1" d="M159.7-6.8V-11h1.5v4.2h3.8v1.5h-3.8V-1h-1.5v-4.2h-3.8v-1.5H159.7z"/>
<path class="st1" d="M183.7,150.2V146h1.5v4.2h3.8v1.5h-3.8v4.2h-1.5v-4.2h-3.8v-1.5H183.7z"/>
<path class="st1" d="M369.7-3.8V-8h1.5v4.2h3.8v1.5h-3.8V2h-1.5v-4.2h-3.8v-1.5H369.7z"/>
<path class="st1" d="M55.7,110.2V106h1.5v4.2h3.8v1.5h-3.8v4.2h-1.5v-4.2h-3.8v-1.5H55.7z"/>
<path class="st1" d="M-14.3,117.2V113h1.5v4.2h3.8v1.5h-3.8v4.2h-1.5v-4.2h-3.8v-1.5H-14.3z"/>
<path class="st1" d="M55.7,187.2V183h1.5v4.2h3.8v1.5h-3.8v4.2h-1.5v-4.2h-3.8v-1.5H55.7z"/>
<path class="st1" d="M231.7,190.2V186h1.5v4.2h3.8v1.5h-3.8v4.2h-1.5v-4.2h-3.8v-1.5H231.7z"/>
<path class="st1" d="M325.7,93.2V89h1.5v4.2h3.8v1.5h-3.8V99h-1.5v-4.2h-3.8v-1.5H325.7z"/>
<path class="st1" d="M333.7,168.2V164h1.5v4.2h3.8v1.5h-3.8v4.2h-1.5v-4.2h-3.8v-1.5H333.7z"/>
<path class="st1" d="M393.7,285.2V281h1.5v4.2h3.8v1.5h-3.8v4.2h-1.5v-4.2h-3.8v-1.5H393.7z"/>
<path class="st1" d="M229.7,284.2V280h1.5v4.2h3.8v1.5h-3.8v4.2h-1.5v-4.2h-3.8v-1.5H229.7z"/>
<path class="st1" d="M238.5,51l5.2,4l3.6-6l6.1,3.7l3.7-6.1l6.1,3.7l3.7-6.1l6.7,4l-0.8,1.3l-5.4-3.3l-3.7,6.1l-6.1-3.7l-3.7,6.1
	l-6.1-3.7l-3.7,6.1l-5-3.8l-2.3,5l-1.4-0.6L238.5,51z"/>
<path class="st1" d="M209.5,152l5.2,4l3.6-6l6.1,3.7l3.7-6.1l6.1,3.7l3.7-6.1l6.7,4l-0.8,1.3l-5.4-3.3l-3.7,6.1l-6.1-3.7l-3.7,6.1
	l-6.1-3.7l-3.7,6.1l-5-3.8l-2.3,5l-1.4-0.6L209.5,152z"/>
<path class="st1" d="M368.6,102.6l-3.3,2.9l3.4,3.1l-3.1,3.5l3.5,3.1l-3.1,3.5l3.5,3.1l-3.6,4l-1.1-1l2.6-2.9l-3.5-3.1l3.1-3.5
	l-3.5-3.1l3.1-3.5l-3.6-3.2l3.1-2.8l-2.7-1.9l0.9-1.2L368.6,102.6z"/>
<path class="st1" d="M62.6,274.6l-3.3,2.9l3.4,3.1l-3.1,3.5l3.5,3.1l-3.1,3.5l3.5,3.1l-3.6,4l-1.1-1l2.6-2.9l-3.5-3.1l3.1-3.5
	l-3.5-3.1l3.1-3.5l-3.6-3.2l3.1-2.8l-2.7-1.9l0.9-1.2L62.6,274.6z"/>
<path class="st1" d="M333.9,203.6l6.5,0.6l-0.1-7l7.1-0.1l-0.1-7.1l7.1-0.1l-0.1-7.1l7.8-0.1l0,1.5l-6.3,0.1l0.1,7.1l-7.1,0.1
	l0.1,7.1l-7.1,0.1l0.1,7.2l-6.3-0.6l0.7,5.4l-1.5,0.2L333.9,203.6z"/>
<path class="st1" d="M176,90.6l6.4-0.9l-1.7-6.8l6.9-1.7l-1.7-6.9l6.9-1.7l-1.7-6.9l7.6-1.9l0.4,1.5l-6.1,1.5l1.7,6.9l-6.9,1.7
	l1.7,6.9l-6.9,1.7l1.8,6.9l-6.2,0.9l1.9,5.1l-1.4,0.5L176,90.6z"/>
<path class="st1" d="M203.6,229.1l1.6,28l-26.4-11L203.6,229.1z M182,245.8l21.6,9l-1.4-23L182,245.8z"/>
<path class="st1" d="M119.1,271.6l1.6,28l-26.4-11L119.1,271.6z M97.5,288.3l21.6,9l-1.4-23L97.5,288.3z"/>
<path class="st1" d="M68.3,164.3l-1.7,16l-13-8.5L68.3,164.3z M56.5,172l8.8,5.7l1.2-10.8L56.5,172z"/>
<path class="st1" d="M324,65.5l-1.7,16l-13-8.5L324,65.5z M312.3,73.2l8.8,5.7l1.2-10.8L312.3,73.2z"/>
<path class="st1" d="M138-2.5l-1.7,16l-13-8.5L138-2.5z M126.3,5.2l8.8,5.7l1.2-10.8L126.3,5.2z"/>
<path class="st1" d="M76,121.5l-1.7,16l-13-8.5L76,121.5z M64.3,129.2l8.8,5.7l1.2-10.8L64.3,129.2z"/>
<path class="st1" d="M157.3,143.4l-28.7-15l25.4-17.9L157.3,143.4z M152.8,113.1l-21.3,15l24,12.6L152.8,113.1z"/>
<path class="st1" d="M59.2,34.5l-28.7-15L55.9,1.6L59.2,34.5z M54.7,4.3l-21.3,15l24,12.6L54.7,4.3z"/>
<path class="st1" d="M33.2,159.5l-28.7-15l25.4-17.9L33.2,159.5z M28.7,129.3l-21.3,15l24,12.6L28.7,129.3z"/>
<path class="st1" d="M200.3,97.2l17.1,27.5l-31,2.5L200.3,97.2z M188.8,125.5l26-2.1l-14.3-23L188.8,125.5z"/>
<path class="st1" d="M292,182.8l20.1-14.1l3.2,23.3L292,182.8z M313.4,189.7l-2.5-18.4l-15.8,11.1L313.4,189.7z"/>
<path class="st1" d="M375,136.8l20.1-14.1l3.2,23.3L375,136.8z M396.4,143.7l-2.5-18.4l-15.8,11.1L396.4,143.7z"/>
<path class="st1" d="M-26,64.8l20.1-14.1L-2.7,74L-26,64.8z M-4.6,71.7l-2.5-18.4l-15.8,11.1L-4.6,71.7z"/>
<path class="st1" d="M303,6.8l20.1-14.1l3.2,23.3L303,6.8z M324.4,13.7l-2.5-18.4L306.1,6.4L324.4,13.7z"/>
<path class="st1" d="M108,230.6l17-12.1l3.8,21.5L108,230.6z M126.8,237.5l-2.9-16.4l-13,9.2L126.8,237.5z"/>
<path class="st1" d="M295.5,134l-12.6,6.2l6.2,12.6l12.6-6.2L295.5,134z M280.9,139.5l7.5,15.3l15.3-7.5l-7.5-15.3L280.9,139.5z"/>
<path class="st1" d="M393.5,187l-12.6,6.2l6.2,12.6l12.6-6.2L393.5,187z M378.9,192.5l7.5,15.3l15.3-7.5l-7.5-15.3L378.9,192.5z"/>
<path class="st1" d="M179.5,198.5l-9,10.7l10.7,9l9-10.7L179.5,198.5z M168.3,209.4l13,11l11-13l-13-11L168.3,209.4z"/>
<path class="st1" d="M111.1,91.1l-9,10.7l10.7,9l9-10.7L111.1,91.1z M99.9,102l13,11l11-13l-13-11L99.9,102z"/>
<path class="st1" d="M282.8,76.1l-4.7,5.1l5.1,4.7l4.7-5.1L282.8,76.1z M275.9,81.3l7.3,6.8l6.8-7.3l-7.3-6.8L275.9,81.3z"/>
<path class="st1" d="M341.8,258.1l-4.7,5.1l5.1,4.7l4.7-5.1L341.8,258.1z M334.9,263.3l7.3,6.8l6.8-7.3l-7.3-6.8L334.9,263.3z"/>
<path class="st1" d="M292.8,86.1l-4.7,5.1l5.1,4.7l4.7-5.1L292.8,86.1z M285.9,91.3l7.3,6.8l6.8-7.3l-7.3-6.8L285.9,91.3z"/>
<path class="st1" d="M351.8,268.1l-4.7,5.1l5.1,4.7l4.7-5.1L351.8,268.1z M344.9,273.3l7.3,6.8l6.8-7.3l-7.3-6.8L344.9,273.3z"/>
<path class="st1" d="M92.8,31.1l-4.7,5.1l5.1,4.7l4.7-5.1L92.8,31.1z M85.9,36.3l7.3,6.8l6.8-7.3L92.7,29L85.9,36.3z"/>
<path class="st1" d="M261.8,285.1l-4.7,5.1l5.1,4.7l4.7-5.1L261.8,285.1z M254.9,290.3l7.3,6.8l6.8-7.3l-7.3-6.8L254.9,290.3z"/>
</svg>
