<svg width="30" height="30" viewBox="0 0 30 30" fill="none" xmlns="http://www.w3.org/2000/svg">
<path fill-rule="evenodd" clip-rule="evenodd" d="M15.75 6.29167C15.75 5.85444 15.4142 5.5 15 5.5C14.5858 5.5 14.25 5.85444 14.25 6.29167V14.25H6.29167C5.85444 14.25 5.5 14.5858 5.5 15C5.5 15.4142 5.85444 15.75 6.29167 15.75H14.25V23.7083C14.25 24.1456 14.5858 24.5 15 24.5C15.4142 24.5 15.75 24.1456 15.75 23.7083V15.75H23.7083C24.1456 15.75 24.5 15.4142 24.5 15C24.5 14.5858 24.1456 14.25 23.7083 14.25H15.75V6.29167Z" fill="#2B3843"/>
</svg>
