<svg width="23" height="22" viewBox="0 0 23 22" fill="none" xmlns="http://www.w3.org/2000/svg">
<path fill-rule="evenodd" clip-rule="evenodd" d="M1.99797 1.02843C2.20129 0.414502 2.7752 0 3.42192 0H18.9189C19.5656 0 20.1395 0.4145 20.3428 1.02843L22.2636 6.82843C22.4273 7.32272 22.3202 7.8248 22.0407 8.19858C22.0603 8.36316 22.0704 8.5305 22.0704 8.7C22.0704 9.73774 21.6941 10.6876 21.0704 11.4205V18.8C21.0704 20.1807 19.9511 21.3 18.5704 21.3H3.77039C2.38968 21.3 1.27039 20.1807 1.27039 18.8V11.4204C0.646739 10.6875 0.270392 9.73772 0.270392 8.7C0.270392 8.53051 0.280476 8.36318 0.300097 8.19861C0.0205612 7.82482 -0.0865046 7.32273 0.0771923 6.82843L1.99797 1.02843ZM3.07039 12.661V18.8C3.07039 19.1866 3.38379 19.5 3.77039 19.5H18.5704C18.957 19.5 19.2704 19.1866 19.2704 18.8V12.661C18.8325 12.8158 18.3613 12.9 17.8704 12.9C16.5025 12.9 15.2873 12.246 14.5204 11.2337C13.7536 12.246 12.5384 12.9 11.1704 12.9C9.80246 12.9 8.58726 12.246 7.8204 11.2337C7.05354 12.246 5.83834 12.9 4.47039 12.9C3.9795 12.9 3.50828 12.8158 3.07039 12.661ZM17.8704 11.1C16.5784 11.1 15.5249 10.0791 15.4725 8.8H20.2684C20.2159 10.0791 19.1624 11.1 17.8704 11.1ZM8.77245 8.8C8.82488 10.0791 9.87842 11.1 11.1704 11.1C12.4624 11.1 13.5159 10.0791 13.5684 8.8H8.77245ZM4.47039 11.1C3.17841 11.1 2.12486 10.0791 2.07244 8.8H6.86835C6.81592 10.0791 5.76238 11.1 4.47039 11.1ZM3.63859 1.8L1.91651 7H20.4243L18.7022 1.8H3.63859Z" fill="#333333"/>
</svg>
